# File created by Blade
# Date/Time:  Fri Jan 16 14:33:41 2015
# Frame Rate: 120.000 fps
#------------------------------------------------------
:FULLY-SPECIFIED
:DEGREES
877
root 19.092256 35.793307 -23.737308 -175.298625 -9.805009 -180.871186
Spine -14.958055 20.757627 -14.417129
Head 4.483408 -34.879104 6.005318
LeftShoulder -7.494614 -17.988836 -9.163274
LeftArm -6.846594 21.335250 -65.496501
LeftForeArm -0.594851 -0.000000 5.995492
LeftHand -1.382598 0.000000 -2.141404
LeftHandThumb1 -26.253704 0.000000 33.147579
RightShoulder 13.367478 -13.117028 -23.959182
RightArm 37.588871 -41.956075 -11.776095
RightForeArm -72.856583 -0.000000 99.283523
RightHand 13.594893 -0.000000 3.503361
RightHandThumb1 -24.326973 -0.000000 -32.862282
LeftUpLeg 1.426484 4.343531 -0.436329
LeftLeg -4.720067 -0.000000 0.000000
LeftFoot -17.734414 23.269924 -15.926665
LeftToeBase 24.064990 -0.000000 -0.000000
RightUpLeg 2.467100 -16.749731 1.231179
RightLeg -3.359746 -0.000000 0.000000
RightFoot -21.481611 -27.478669 16.050097
RightToeBase 22.420492 -0.000000 -0.000000
878
root 19.095510 35.793167 -23.738199 -175.314000 -9.810391 -180.873581
Spine -14.935913 20.750585 -14.436463
Head 4.558380 -34.886478 5.983845
LeftShoulder -7.516535 -17.964423 -9.169265
LeftArm -6.830743 21.326298 -65.494847
LeftForeArm -0.615311 -0.000000 5.979782
LeftHand -1.363376 0.000000 -2.127439
LeftHandThumb1 -26.253704 0.000000 33.147579
RightShoulder 13.399598 -13.215671 -23.999252
RightArm 37.613302 -42.266916 -11.776796
RightForeArm -72.962965 0.000000 98.703439
RightHand 13.533355 0.000000 3.191592
RightHandThumb1 -24.326973 -0.000000 -32.862282
LeftUpLeg 1.437947 4.325504 -0.431330
LeftLeg -4.710842 -0.000000 0.000000
LeftFoot -17.738073 23.280113 -15.922383
LeftToeBase 24.077300 -0.000000 -0.000000
RightUpLeg 2.483001 -16.757465 1.229796
RightLeg -3.355441 -0.000000 0.000000
RightFoot -21.486765 -27.487424 16.036347
RightToeBase 22.412345 -0.000000 -0.000000
879
root 19.099016 35.793363 -23.740262 -175.331639 -9.797674 -180.878375
Spine -14.907463 20.763623 -14.467687
Head 4.608228 -34.814517 5.982150
LeftShoulder -7.559298 -17.939784 -9.168526
LeftArm -6.788970 21.345815 -65.486270
LeftForeArm -0.644631 -0.000000 5.963288
LeftHand -1.334176 -0.000000 -2.119658
LeftHandThumb1 -26.253704 0.000000 33.147579
RightShoulder 13.373598 -13.296154 -24.011136
RightArm 37.677970 -42.514552 -11.801240
RightForeArm -73.068612 -0.000000 98.172226
RightHand 13.509752 -0.000000 3.004393
RightHandThumb1 -24.326973 -0.000000 -32.862282
LeftUpLeg 1.459062 4.314221 -0.427224
LeftLeg -4.708360 -0.000000 0.000000
LeftFoot -17.740255 23.287483 -15.942185
LeftToeBase 24.060570 -0.000000 -0.000000
RightUpLeg 2.500235 -16.767169 1.225285
RightLeg -3.352276 -0.000000 0.000000
RightFoot -21.484027 -27.475069 16.025769
RightToeBase 22.432163 -0.000000 -0.000000
880
root 19.102937 35.793100 -23.742933 -175.356905 -9.785504 -180.878896
Spine -14.878964 20.776883 -14.490235
Head 4.666174 -34.808655 5.991662
LeftShoulder -7.590448 -17.911792 -9.169346
LeftArm -6.754672 21.360252 -65.483418
LeftForeArm -0.652160 -0.000000 5.943117
LeftHand -1.327949 -0.000000 -2.068042
LeftHandThumb1 -26.253704 0.000000 33.147579
RightShoulder 13.369982 -13.378112 -24.023754
RightArm 37.740797 -42.763249 -11.810663
RightForeArm -73.271015 -0.000000 97.650489
RightHand 13.681917 -0.000000 2.904423
RightHandThumb1 -24.326973 -0.000000 -32.862282
LeftUpLeg 1.487401 4.307367 -0.418643
LeftLeg -4.706575 -0.000000 0.000000
LeftFoot -17.740108 23.310186 -15.943629
LeftToeBase 24.051050 -0.000000 -0.000000
RightUpLeg 2.527244 -16.769412 1.224359
RightLeg -3.349825 -0.000000 0.000000
RightFoot -21.486049 -27.464073 16.016803
RightToeBase 22.373526 -0.000000 -0.000000
881
root 19.104736 35.794565 -23.744324 -175.329203 -9.774737 -180.867311
Spine -14.936374 20.899268 -14.565243
Head 4.692183 -34.914267 6.042050
LeftShoulder -7.522851 -17.855609 -9.195504
LeftArm -6.717429 21.359691 -65.488193
LeftForeArm -0.651200 -0.000000 5.915359
LeftHand -1.300853 -0.000000 -1.996097
LeftHandThumb1 -26.253704 0.000000 33.147579
RightShoulder 13.298163 -13.479938 -23.984840
RightArm 37.635720 -43.071061 -11.695980
RightForeArm -73.296306 0.000000 97.253696
RightHand 13.714343 -0.000000 3.086600
RightHandThumb1 -24.326973 -0.000000 -32.862282
LeftUpLeg 1.456618 4.280354 -0.406370
LeftLeg -4.693571 -0.000000 0.000000
LeftFoot -17.769622 23.321890 -15.976306
LeftToeBase 24.064892 -0.000000 -0.000000
RightUpLeg 2.497594 -16.788064 1.244701
RightLeg -3.351745 -0.000000 0.000000
RightFoot -21.472666 -27.424265 16.051049
RightToeBase 22.400324 -0.000000 -0.000000
882
root 19.108027 35.795036 -23.744870 -175.331597 -9.762254 -180.872329
Spine -14.932695 20.906840 -14.599948
Head 4.749469 -34.871792 6.050621
LeftShoulder -7.557348 -17.837450 -9.193322
LeftArm -6.686276 21.332159 -65.480671
LeftForeArm -0.636230 -0.000000 5.882234
LeftHand -1.294879 0.000000 -1.999339
LeftHandThumb1 -26.253704 0.000000 33.147579
RightShoulder 13.307366 -13.528285 -23.961987
RightArm 37.646242 -43.344327 -11.727478
RightForeArm -73.456683 -0.000000 96.798053
RightHand 13.785760 -0.000000 2.887586
RightHandThumb1 -24.326973 -0.000000 -32.862282
LeftUpLeg 1.451479 4.284104 -0.405934
LeftLeg -4.680521 -0.000000 0.000000
LeftFoot -17.760932 23.337721 -15.978304
LeftToeBase 24.080692 -0.000000 -0.000000
RightUpLeg 2.501643 -16.806487 1.244844
RightLeg -3.357256 -0.000000 0.000000
RightFoot -21.476878 -27.415456 16.064293
RightToeBase 22.371900 -0.000000 -0.000000
